# xmcd
#
# Track frame offsets:
#	150
#	16312
#	35570
#	55537
#	69350
#	107555
#	127905
#	145422
#	156817
#	170515
#
# Disc length: 2515 seconds
#
# Revision: 1
# Processed by: cddbd v1.4PL0 Copyright (c) Steve Scherf et al.
# Submitted via: audiograbber 1.80
#
DISCID=7c09d10a
DTITLE=Solon Fishbone y Los Cobras - Heart and Soul
DYEAR=1900
DGENRE=
TTITLE0=I Ain't Got No Reason To Cry
TTITLE1=You Don't Have To Go
TTITLE2=Magic Funk
TTITLE3=Te-Ni-Nee-Ni-Nu
TTITLE4=Blues in D-Flat
TTITLE5=You Got Me Out Of My Mind
TTITLE6=Goin' Back Home
TTITLE7=Fishbone's Boogie
TTITLE8=Roll, Roll, Roll
TTITLE9=Borrowed Swang
EXTD=Solon Fishbone is a Brazilian Bluesman and this is his second album.
EXTT0=
EXTT1=Song by Jimmy Reed
EXTT2=
EXTT3=Song by Moore/West
EXTT4=Song by Hooker/London
EXTT5=
EXTT6=
EXTT7=
EXTT8=Song by Schuler, Baker
EXTT9=
PLAYORDER=
